<svg xmlns="http://www.w3.org/2000/svg" xmlns:xlink="http://www.w3.org/1999/xlink" contentStyleType="text/css" data-diagram-type="DESCRIPTION" height="569px" preserveAspectRatio="none" style="width:2173px;height:569px;background:#FFFFFF;" version="1.1" viewBox="0 0 2173 569" width="2173px" zoomAndPan="magnify"><title>OCC Core - Modular Monolith Boundaries</title><defs/><g><g class="title" data-source-line="1"><text fill="#000000" font-family="Arial" font-size="14" font-weight="bold" lengthAdjust="spacing" textLength="276.8828" x="941.1395" y="23.1318">OCC Core - Modular Monolith Boundaries</text></g><!--cluster OCC Core--><g class="cluster" data-entity="OCC Core" data-source-line="8" data-uid="ent0002" id="cluster_OCC Core"><path d="M8.5,185.0486 L76.3965,185.0486 A3.75,3.75 0 0 1 78.8965,187.5486 L85.8965,207.1473 L1742.91,207.1473 A2.5,2.5 0 0 1 1745.41,209.6473 L1745.41,559.5486 A2.5,2.5 0 0 1 1742.91,562.0486 L8.5,562.0486 A2.5,2.5 0 0 1 6,559.5486 L6,187.5486 A2.5,2.5 0 0 1 8.5,185.0486" fill="none" style="stroke:#000000;stroke-width:1.5;"/><line style="stroke:#000000;stroke-width:1.5;" x1="6" x2="85.8965" y1="207.1473" y2="207.1473"/><text fill="#000000" font-family="Arial" font-size="14" font-weight="bold" lengthAdjust="spacing" textLength="66.8965" x="10" y="200.1805">OCC Core</text></g><!--entity iam--><g class="entity" data-entity="iam" data-source-line="9" data-uid="ent0003" id="entity_iam"><rect fill="#F1F1F1" height="36.0986" rx="2.5" ry="2.5" style="stroke:#181818;stroke-width:0.5;" width="127.3789" x="22" y="413.9986"/><text fill="#000000" font-family="Arial" font-size="14" lengthAdjust="spacing" textLength="107.3789" x="32" y="437.1305">Identity &amp; Access</text></g><!--entity authz--><g class="entity" data-entity="authz" data-source-line="10" data-uid="ent0004" id="entity_authz"><rect fill="#F1F1F1" height="36.0986" rx="2.5" ry="2.5" style="stroke:#181818;stroke-width:0.5;" width="101.7168" x="402.93" y="411.9986"/><text fill="#000000" font-family="Arial" font-size="14" lengthAdjust="spacing" textLength="81.7168" x="412.93" y="435.1305">Authorization</text></g><!--entity catalog--><g class="entity" data-entity="catalog" data-source-line="11" data-uid="ent0005" id="entity_catalog"><rect fill="#F1F1F1" height="36.0986" rx="2.5" ry="2.5" style="stroke:#181818;stroke-width:0.5;" width="126.6133" x="22.38" y="322.9986"/><text fill="#000000" font-family="Arial" font-size="14" lengthAdjust="spacing" textLength="106.6133" x="32.38" y="346.1305">Domain Package</text></g><!--entity pd--><g class="entity" data-entity="pd" data-source-line="12" data-uid="ent0006" id="entity_pd"><rect fill="#F1F1F1" height="36.0986" rx="2.5" ry="2.5" style="stroke:#181818;stroke-width:0.5;" width="132.8271" x="387.38" y="301.9986"/><text fill="#000000" font-family="Arial" font-size="14" lengthAdjust="spacing" textLength="112.8271" x="397.38" y="325.1305">Process Definition</text></g><!--entity pi--><g class="entity" data-entity="pi" data-source-line="13" data-uid="ent0007" id="entity_pi"><rect fill="#F1F1F1" height="36.0986" rx="2.5" ry="2.5" style="stroke:#181818;stroke-width:0.5;" width="127.3857" x="702.21" y="305.9986"/><text fill="#000000" font-family="Arial" font-size="14" lengthAdjust="spacing" textLength="107.3857" x="712.21" y="329.1305">Process Instance</text></g><!--entity task--><g class="entity" data-entity="task" data-source-line="14" data-uid="ent0008" id="entity_task"><rect fill="#F1F1F1" height="36.0986" rx="2.5" ry="2.5" style="stroke:#181818;stroke-width:0.5;" width="50.3379" x="1039.42" y="312.9986"/><text fill="#000000" font-family="Arial" font-size="14" lengthAdjust="spacing" textLength="30.3379" x="1049.42" y="336.1305">Task</text></g><!--entity evidence--><g class="entity" data-entity="evidence" data-source-line="15" data-uid="ent0009" id="entity_evidence"><rect fill="#F1F1F1" height="36.0986" rx="2.5" ry="2.5" style="stroke:#181818;stroke-width:0.5;" width="77.5928" x="1347.9" y="472.9986"/><text fill="#000000" font-family="Arial" font-size="14" lengthAdjust="spacing" textLength="57.5928" x="1357.9" y="496.1305">Evidence</text></g><!--entity risk--><g class="entity" data-entity="risk" data-source-line="16" data-uid="ent0010" id="entity_risk"><rect fill="#F1F1F1" height="36.0986" rx="2.5" ry="2.5" style="stroke:#181818;stroke-width:0.5;" width="47.2207" x="1363.08" y="330.9986"/><text fill="#000000" font-family="Arial" font-size="14" lengthAdjust="spacing" textLength="27.2207" x="1373.08" y="354.1305">Risk</text></g><!--entity resource--><g class="entity" data-entity="resource" data-source-line="17" data-uid="ent0011" id="entity_resource"><rect fill="#F1F1F1" height="36.0986" rx="2.5" ry="2.5" style="stroke:#181818;stroke-width:0.5;" width="79.917" x="1346.73" y="401.9986"/><text fill="#000000" font-family="Arial" font-size="14" lengthAdjust="spacing" textLength="59.917" x="1356.73" y="425.1305">Resource</text></g><!--entity audit--><g class="entity" data-entity="audit" data-source-line="18" data-uid="ent0012" id="entity_audit"><rect fill="#F1F1F1" height="36.0986" rx="2.5" ry="2.5" style="stroke:#181818;stroke-width:0.5;" width="51.9102" x="1670.89" y="330.9986"/><text fill="#000000" font-family="Arial" font-size="14" lengthAdjust="spacing" textLength="31.9102" x="1680.89" y="354.1305">Audit</text></g><!--entity outbox--><g class="entity" data-entity="outbox" data-source-line="19" data-uid="ent0013" id="entity_outbox"><rect fill="#F1F1F1" height="36.0986" rx="2.5" ry="2.5" style="stroke:#181818;stroke-width:0.5;" width="65.1377" x="1664.28" y="239.9986"/><text fill="#000000" font-family="Arial" font-size="14" lengthAdjust="spacing" textLength="45.1377" x="1674.28" y="263.1305">Outbox</text></g><!--entity flowable--><g class="entity" data-entity="flowable" data-source-line="41" data-uid="ent0032" id="entity_flowable"><rect fill="#F1F1F1" height="36.0986" rx="2.5" ry="2.5" style="stroke:#181818;stroke-width:0.5;" width="170.1992" x="1301.59" y="115.9986"/><text fill="#000000" font-family="Arial" font-size="14" lengthAdjust="spacing" textLength="150.1992" x="1311.59" y="139.1305">Embedded Flowable 7.x</text></g><!--entity pg--><g class="entity" data-entity="pg" data-source-line="42" data-uid="ent0033" id="entity_pg"><path d="M2059.9,190.4986 C2059.9,180.4986 2108.0309,180.4986 2108.0309,180.4986 C2108.0309,180.4986 2156.1617,180.4986 2156.1617,190.4986 L2156.1617,215.5973 C2156.1617,225.5973 2108.0309,225.5973 2108.0309,225.5973 C2108.0309,225.5973 2059.9,225.5973 2059.9,215.5973 L2059.9,190.4986" fill="#F1F1F1" style="stroke:#181818;stroke-width:0.5;"/><path d="M2059.9,190.4986 C2059.9,200.4986 2108.0309,200.4986 2108.0309,200.4986 C2108.0309,200.4986 2156.1617,200.4986 2156.1617,190.4986" fill="none" style="stroke:#181818;stroke-width:0.5;"/><text fill="#000000" font-family="Arial" font-size="14" lengthAdjust="spacing" textLength="76.2617" x="2069.9" y="217.6305">PostgreSQL</text></g><!--entity kafka--><g class="entity" data-entity="kafka" data-source-line="43" data-uid="ent0034" id="entity_kafka"><path d="M2085.13,260.9986 L2130.9298,260.9986 C2135.9298,260.9986 2135.9298,274.0479 2135.9298,274.0479 C2135.9298,274.0479 2135.9298,287.0973 2130.9298,287.0973 L2085.13,287.0973 C2080.13,287.0973 2080.13,274.0479 2080.13,274.0479 C2080.13,274.0479 2080.13,260.9986 2085.13,260.9986" fill="#F1F1F1" style="stroke:#181818;stroke-width:0.5;"/><path d="M2130.9298,260.9986 C2125.9298,260.9986 2125.9298,274.0479 2125.9298,274.0479 C2125.9298,287.0973 2130.9298,287.0973 2130.9298,287.0973" fill="none" style="stroke:#181818;stroke-width:0.5;"/><text fill="#000000" font-family="Arial" font-size="14" lengthAdjust="spacing" textLength="35.7998" x="2085.13" y="279.1305">Kafka</text></g><g class="entity" data-entity="GMN42" data-source-line="54" data-uid="ent0043" id="entity_GMN42"><path d="M1532.79,43.0986 L1532.79,82.9961 A0,0 0 0 0 1532.79,82.9961 L1603.14,82.9961 L1467.85,115.5786 L1611.14,82.9961 L1860.896,82.9961 A0,0 0 0 0 1860.896,82.9961 L1860.896,53.0986 L1850.896,43.0986 L1532.79,43.0986 A0,0 0 0 0 1532.79,43.0986" fill="#FEFFDD" style="stroke:#181818;stroke-width:0.5;"/><path d="M1850.896,43.0986 L1850.896,53.0986 L1860.896,53.0986 L1850.896,43.0986" fill="#FEFFDD" style="stroke:#181818;stroke-width:0.5;"/><text fill="#000000" font-family="Arial" font-size="13" lengthAdjust="spacing" textLength="299.1333" x="1538.79" y="60.2925">Only Process Definition, Process Instance and Task</text><text fill="#000000" font-family="Arial" font-size="13" lengthAdjust="spacing" textLength="307.106" x="1538.79" y="75.2412">modules may depend on Flowable APIs or identifiers.</text></g><!--link iam to authz--><g class="link" data-entity-1="iam" data-entity-2="authz" data-source-line="21" data-uid="lnk14" id="link_iam_authz"><path d="M149.75,434.3686 C159.67,434.6486 169.8,434.8986 179.38,435.0486 C258.48,436.3286 278.29,437.1186 357.38,435.0486 C372.14,434.6586 382.1785,434.2581 396.8085,433.4781" fill="none" id="iam-to-authz" style="stroke:#181818;stroke-width:1;"/><polygon fill="#181818" points="402.8,433.1586,393.5998,429.6435,397.8071,433.4248,394.0257,437.6321,402.8,433.1586" style="stroke:#181818;stroke-width:1;"/><text fill="#000000" font-family="Arial" font-size="13" lengthAdjust="spacing" textLength="54.9136" x="241.38" y="432.2425">principals</text></g><!--link catalog to authz--><g class="link" data-entity-1="catalog" data-entity-2="authz" data-source-line="22" data-uid="lnk15" id="link_catalog_authz"><path d="M149.21,356.2486 C220.79,373.6486 330.8099,400.3909 396.7699,416.4309" fill="none" id="catalog-to-authz" style="stroke:#181818;stroke-width:1;"/><polygon fill="#181818" points="402.6,417.8486,394.8,411.8353,397.7416,416.6672,392.9097,419.6087,402.6,417.8486" style="stroke:#181818;stroke-width:1;"/><text fill="#000000" font-family="Arial" font-size="13" lengthAdjust="spacing" textLength="176.3125" x="180.38" y="362.1125">actions, relations, policy scope</text></g><!--link catalog to pd--><g class="link" data-entity-1="catalog" data-entity-2="pd" data-source-line="23" data-uid="lnk16" id="link_catalog_pd"><path d="M149.21,337.4586 C215.48,333.6586 313.6998,328.0215 381.1398,324.1615" fill="none" id="catalog-to-pd" style="stroke:#181818;stroke-width:1;"/><polygon fill="#181818" points="387.13,323.8186,377.9161,320.3395,382.1382,324.1043,378.3733,328.3264,387.13,323.8186" style="stroke:#181818;stroke-width:1;"/><text fill="#000000" font-family="Arial" font-size="13" lengthAdjust="spacing" textLength="160.3481" x="188.38" y="322.8725">BPMN / DMN / forms / rules</text></g><!--link pd to pi--><g class="link" data-entity-1="pd" data-entity-2="pi" data-source-line="24" data-uid="lnk17" id="link_pd_pi"><path d="M520.56,320.8986 C574.07,321.5886 643.1105,322.4813 695.8805,323.1613" fill="none" id="pd-to-pi" style="stroke:#181818;stroke-width:1;"/><polygon fill="#181818" points="701.88,323.2386,692.9323,319.123,696.8804,323.1742,692.8292,327.1223,701.88,323.2386" style="stroke:#181818;stroke-width:1;"/><text fill="#000000" font-family="Arial" font-size="13" lengthAdjust="spacing" textLength="101.9053" x="560.71" y="318.5325">versioned binding</text></g><!--link pi to task--><g class="link" data-entity-1="pi" data-entity-2="task" data-source-line="25" data-uid="lnk18" id="link_pi_task"><path d="M829.82,325.5286 C894.97,327.0686 987.4617,329.2576 1032.9617,330.3276" fill="none" id="pi-to-task" style="stroke:#181818;stroke-width:1;"/><polygon fill="#181818" points="1038.96,330.4686,1030.0565,326.2581,1033.9614,330.3511,1029.8684,334.2559,1038.96,330.4686" style="stroke:#181818;stroke-width:1;"/><text fill="#000000" font-family="Arial" font-size="13" lengthAdjust="spacing" textLength="46.2363" x="897.59" y="323.5025">lifecycle</text></g><!--link task to evidence--><g class="link" data-entity-1="task" data-entity-2="evidence" data-source-line="26" data-uid="lnk19" id="link_task_evidence"><path d="M1077.52,349.5586 C1091.77,370.2086 1117.5,403.1886 1147.59,422.0486 C1211.05,461.8086 1292.3027,478.5336 1341.6527,485.7236" fill="none" id="task-to-evidence" style="stroke:#181818;stroke-width:1;"/><polygon fill="#181818" points="1347.59,486.5886,1339.2607,481.3329,1342.6422,485.8678,1338.1073,489.2493,1347.59,486.5886" style="stroke:#181818;stroke-width:1;"/><text fill="#000000" font-family="Arial" font-size="13" lengthAdjust="spacing" textLength="75.8672" x="1172.09" y="419.2425">requirements</text></g><!--link task to risk--><g class="link" data-entity-1="task" data-entity-2="risk" data-source-line="27" data-uid="lnk20" id="link_task_risk"><path d="M1090.18,332.4286 C1150.35,335.8186 1298.3494,344.1422 1356.7594,347.4222" fill="none" id="task-to-risk" style="stroke:#181818;stroke-width:1;"/><polygon fill="#181818" points="1362.75,347.7586,1353.9884,343.2603,1357.7579,347.4783,1353.5399,351.2477,1362.75,347.7586" style="stroke:#181818;stroke-width:1;"/><text fill="#000000" font-family="Arial" font-size="13" lengthAdjust="spacing" textLength="122.8716" x="1148.59" y="333.0725">events and deadlines</text></g><!--link task to resource--><g class="link" data-entity-1="task" data-entity-2="resource" data-source-line="28" data-uid="lnk21" id="link_task_resource"><path d="M1089.91,342.7986 C1106,350.2286 1127.71,359.6086 1147.59,366.0486 C1216.14,388.2486 1292.7452,403.7138 1340.4352,412.3138" fill="none" id="task-to-resource" style="stroke:#181818;stroke-width:1;"/><polygon fill="#181818" points="1346.34,413.3786,1338.1927,407.8449,1341.4194,412.4913,1336.773,415.7179,1346.34,413.3786" style="stroke:#181818;stroke-width:1;"/><text fill="#000000" font-family="Arial" font-size="13" lengthAdjust="spacing" textLength="70.8081" x="1174.59" y="363.2425">reservations</text></g><!--link authz to pi--><g class="link" data-entity-1="authz" data-entity-2="pi" data-source-line="29" data-uid="lnk22" id="link_authz_pi"><path d="M504.96,412.8986 C561.44,393.5886 647.2026,364.2794 705.2126,344.4494" fill="none" id="authz-to-pi" style="stroke:#181818;stroke-width:1;stroke-dasharray:7,7;"/><polygon fill="#181818" points="710.89,342.5086,701.08,341.6348,706.1588,344.1259,703.6677,349.2047,710.89,342.5086" style="stroke:#181818;stroke-width:1;"/><text fill="#000000" font-family="Arial" font-size="13" lengthAdjust="spacing" textLength="120.6689" x="551.21" y="355.5325">authorize commands</text></g><!--link authz to task--><g class="link" data-entity-1="authz" data-entity-2="task" data-source-line="30" data-uid="lnk23" id="link_authz_task"><path d="M504.99,424.8686 C549.12,420.1186 615.05,412.5386 672.21,404.0486 C811.68,383.3186 971.5289,350.5054 1033.0989,337.5354" fill="none" id="authz-to-task" style="stroke:#181818;stroke-width:1;stroke-dasharray:7,7;"/><polygon fill="#181818" points="1038.97,336.2986,1029.3388,334.2397,1034.0774,337.3293,1030.9878,342.0679,1038.97,336.2986" style="stroke:#181818;stroke-width:1;"/><text fill="#000000" font-family="Arial" font-size="13" lengthAdjust="spacing" textLength="120.6689" x="705.9" y="375.0825">authorize commands</text></g><!--link authz to evidence--><g class="link" data-entity-1="authz" data-entity-2="evidence" data-source-line="31" data-uid="lnk24" id="link_authz_evidence"><path d="M504.77,433.7586 C618.73,442.1786 906.62,463.1186 1147.59,478.0486 C1218.25,482.4286 1294.7577,486.4539 1341.7477,488.8439" fill="none" id="authz-to-evidence" style="stroke:#181818;stroke-width:1;stroke-dasharray:7,7;"/><polygon fill="#181818" points="1347.74,489.1486,1338.9548,484.6966,1342.7465,488.8947,1338.5484,492.6863,1347.74,489.1486" style="stroke:#181818;stroke-width:1;"/><text fill="#000000" font-family="Arial" font-size="13" lengthAdjust="spacing" textLength="120.6689" x="860.59" y="456.4625">authorize commands</text></g><!--link pi to audit--><g class="link" data-entity-1="pi" data-entity-2="audit" data-source-line="32" data-uid="lnk25" id="link_pi_audit"><path d="M808.56,342.4586 C915.89,389.4686 1200.53,511.3586 1301.59,527.0486 C1376.34,538.6586 1400.37,551.9686 1471.79,527.0486 C1564.67,494.6486 1644.0022,410.4501 1676.9522,371.8901" fill="none" id="pi-to-audit" style="stroke:#181818;stroke-width:1;"/><polygon fill="#181818" points="1680.85,367.3286,1671.9623,371.5723,1677.6018,371.1299,1678.0442,376.7694,1680.85,367.3286" style="stroke:#181818;stroke-width:1;"/></g><!--link task to audit--><g class="link" data-entity-1="task" data-entity-2="audit" data-source-line="33" data-uid="lnk26" id="link_task_audit"><path d="M1090.1,323.8286 C1106.26,319.4486 1127.99,314.2886 1147.59,312.0486 C1175.62,308.8486 1428.49,309.4786 1471.79,313.0486 C1544.43,319.0286 1623.2125,333.9624 1664.5825,342.4524" fill="none" id="task-to-audit" style="stroke:#181818;stroke-width:1;"/><polygon fill="#181818" points="1670.46,343.6586,1662.4479,337.931,1665.5621,342.6535,1660.8396,345.7677,1670.46,343.6586" style="stroke:#181818;stroke-width:1;"/></g><!--link evidence to audit--><g class="link" data-entity-1="evidence" data-entity-2="audit" data-source-line="34" data-uid="lnk27" id="link_evidence_audit"><path d="M1425.97,475.5986 C1440.4,469.6486 1456.92,462.6886 1471.79,456.0486 C1544.61,423.5386 1623.8138,384.8026 1665.1238,364.3326" fill="none" id="evidence-to-audit" style="stroke:#181818;stroke-width:1;"/><polygon fill="#181818" points="1670.5,361.6686,1660.6598,362.0805,1666.0199,363.8886,1664.2118,369.2487,1670.5,361.6686" style="stroke:#181818;stroke-width:1;"/></g><!--link risk to audit--><g class="link" data-entity-1="risk" data-entity-2="audit" data-source-line="35" data-uid="lnk28" id="link_risk_audit"><path d="M1410.6,349.0486 C1466.95,349.0486 1605.97,349.0486 1664.64,349.0486" fill="none" id="risk-to-audit" style="stroke:#181818;stroke-width:1;"/><polygon fill="#181818" points="1670.64,349.0486,1661.64,345.0486,1665.64,349.0486,1661.64,353.0486,1670.64,349.0486" style="stroke:#181818;stroke-width:1;"/></g><!--link pi to outbox--><g class="link" data-entity-1="pi" data-entity-2="outbox" data-source-line="36" data-uid="lnk29" id="link_pi_outbox"><path d="M829.98,307.8286 C839.85,305.6486 849.96,303.6286 859.59,302.0486 C1142.09,255.6586 1215.58,258.4786 1501.79,252.0486 C1558.91,250.7686 1619.4699,253.4643 1657.9199,255.6743" fill="none" id="pi-to-outbox" style="stroke:#181818;stroke-width:1;"/><polygon fill="#181818" points="1663.91,256.0186,1655.1544,251.5088,1658.9182,255.7317,1654.6953,259.4956,1663.91,256.0186" style="stroke:#181818;stroke-width:1;"/></g><!--link task to outbox--><g class="link" data-entity-1="task" data-entity-2="outbox" data-source-line="37" data-uid="lnk30" id="link_task_outbox"><path d="M1090.23,320.4386 C1106.26,314.0186 1127.8,306.2686 1147.59,302.0486 C1340.44,260.9386 1572.9,257.5031 1657.91,257.7231" fill="none" id="task-to-outbox" style="stroke:#181818;stroke-width:1;"/><polygon fill="#181818" points="1663.91,257.7386,1654.9204,253.7154,1658.91,257.7257,1654.8997,261.7153,1663.91,257.7386" style="stroke:#181818;stroke-width:1;"/></g><!--link evidence to outbox--><g class="link" data-entity-1="evidence" data-entity-2="outbox" data-source-line="38" data-uid="lnk31" id="link_evidence_outbox"><path d="M1425.64,482.1186 C1441.54,476.7786 1459.21,468.5186 1471.79,456.0486 C1520.86,407.4086 1482.07,359.9686 1532.79,313.0486 C1569.53,279.0686 1622.0463,266.8283 1658.0863,261.8583" fill="none" id="evidence-to-outbox" style="stroke:#181818;stroke-width:1;"/><polygon fill="#181818" points="1664.03,261.0386,1654.5679,258.3056,1659.0769,261.7217,1655.6608,266.2306,1664.03,261.0386" style="stroke:#181818;stroke-width:1;"/></g><!--link pd to flowable--><g class="link" data-entity-1="pd" data-entity-2="flowable" data-source-line="45" data-uid="lnk35" id="link_pd_flowable"><path d="M490.67,301.6386 C577.35,258.2886 806.21,150.5486 1011.59,112.0486 C1071.1,100.8886 1087.07,105.8286 1147.59,104.0486 C1202.68,102.4286 1216.94,96.9786 1271.59,104.0486 C1289.87,106.4086 1303.6047,109.2647 1321.2447,113.9947" fill="none" id="pd-to-flowable" style="stroke:#181818;stroke-width:1;"/><polygon fill="#181818" points="1327.04,115.5486,1319.383,109.3542,1322.2106,114.2537,1317.3111,117.0812,1327.04,115.5486" style="stroke:#181818;stroke-width:1;"/><text fill="#000000" font-family="Arial" font-size="13" lengthAdjust="spacing" textLength="100.458" x="870.59" y="115.3325">deploy definitions</text></g><!--link pi to flowable--><g class="link" data-entity-1="pi" data-entity-2="flowable" data-source-line="46" data-uid="lnk36" id="link_pi_flowable"><path d="M776.38,305.8586 C790.72,280.3686 820.44,234.5886 859.59,212.0486 C998.83,131.8986 1185.8432,124.4718 1295.2032,128.0618" fill="none" id="pi-to-flowable" style="stroke:#181818;stroke-width:1;"/><polygon fill="#181818" points="1301.2,128.2586,1292.3361,123.9655,1296.2027,128.0946,1292.0736,131.9612,1301.2,128.2586" style="stroke:#181818;stroke-width:1;"/><text fill="#000000" font-family="Arial" font-size="13" lengthAdjust="spacing" textLength="104.0635" x="1012.59" y="133.4425">execute instances</text></g><!--link task to flowable--><g class="link" data-entity-1="task" data-entity-2="flowable" data-source-line="47" data-uid="lnk37" id="link_task_flowable"><path d="M1080.75,312.6386 C1096.18,294.7286 1121.5,267.5886 1147.59,249.0486 C1181.09,225.2586 1278.6586,180.9261 1337.6286,154.9661" fill="none" id="task-to-flowable" style="stroke:#181818;stroke-width:1;"/><polygon fill="#181818" points="1343.12,152.5486,1333.2712,152.5139,1338.5438,154.5632,1336.4945,159.8358,1343.12,152.5486" style="stroke:#181818;stroke-width:1;"/><text fill="#000000" font-family="Arial" font-size="13" lengthAdjust="spacing" textLength="71.5444" x="1174.09" y="184.9525">task adapter</text></g><!--link flowable to pg--><g class="link" data-entity-1="flowable" data-entity-2="pg" data-source-line="48" data-uid="lnk38" id="link_flowable_pg"><path d="M1471.97,142.1286 C1624.08,156.7186 1933.8374,186.4356 2053.5974,197.9256" fill="none" id="flowable-to-pg" style="stroke:#181818;stroke-width:1;"/><polygon fill="#181818" points="2059.57,198.4986,2050.9932,193.6574,2054.5929,198.0211,2050.2291,201.6208,2059.57,198.4986" style="stroke:#181818;stroke-width:1;"/><text fill="#000000" font-family="Arial" font-size="13" lengthAdjust="spacing" textLength="130.7998" x="1631.84" y="145.1925">private engine schema</text></g><!--link audit to pg--><g class="link" data-entity-1="audit" data-entity-2="pg" data-source-line="49" data-uid="lnk39" id="link_audit_pg"><path d="M1723.19,349.1986 C1781.6,348.4486 1928.44,340.1286 2029.9,279.0486 C2047.74,268.3086 2045.24,257.8386 2059.9,243.0486 C2065.64,237.2586 2067.5711,235.2911 2073.8611,229.8811" fill="none" id="audit-to-pg" style="stroke:#181818;stroke-width:1;"/><polygon fill="#181818" points="2078.41,225.9686,2068.9783,228.8048,2074.6193,229.229,2074.195,234.87,2078.41,225.9686" style="stroke:#181818;stroke-width:1;"/></g><!--link outbox to pg--><g class="link" data-entity-1="outbox" data-entity-2="pg" data-source-line="50" data-uid="lnk40" id="link_outbox_pg"><path d="M1729.61,253.7786 C1801.15,244.1586 1969.2634,221.5677 2053.6534,210.2277" fill="none" id="outbox-to-pg" style="stroke:#181818;stroke-width:1;"/><polygon fill="#181818" points="2059.6,209.4286,2050.1475,206.6629,2054.6445,210.0945,2051.2129,214.5916,2059.6,209.4286" style="stroke:#181818;stroke-width:1;"/></g><!--link outbox to kafka--><g class="link" data-entity-1="outbox" data-entity-2="kafka" data-source-line="51" data-uid="lnk41" id="link_outbox_kafka"><path d="M1729.61,259.2886 C1807.44,262.3386 2000.6146,269.8839 2073.6546,272.7439" fill="none" id="outbox-to-kafka" style="stroke:#181818;stroke-width:1;"/><polygon fill="#181818" points="2079.65,272.9786,2070.8134,268.6296,2074.6538,272.783,2070.5004,276.6234,2079.65,272.9786" style="stroke:#181818;stroke-width:1;"/><text fill="#000000" font-family="Arial" font-size="13" lengthAdjust="spacing" textLength="137.3062" x="1891.9" y="263.2425">asynchronous publisher</text></g><!--SRC=[XLHDJnin4BtxLunow0dIOwKUAeK04cg15BXLFKpMixkZUEt5zWP2rV_UiTS96q3gPTT-xtayduuS3S7jSWbBvmbEuThfmQ2NltM6OmjdRh0QFLDGXke8qO7dfesWsLCLsLaLDcnxzDZ16gjDuzE9fJFEmrFBaIPyQ56x9xODr6Z2bD5Kus3YfRFn1Zk2XMSq4xvoNUyisNWVT-9nkXfjOqYfNkx4Xc2sZs86VnJ0hoijQeux-0IBgg8GVWC6OEmIkHXYwpo_O0eW4oZ8IwBENOTiOJMQpLo54Orh4hloBjc2SwhPyk5qhwVabGtYNJKUxZbH3nWsUHjbaO2BBOk3HKDbauWxBahFe_AEWXjyKVgo6OFG78lpiahGxH3NxZbZBY-Le18pd9v-6qE4hz1xjXNtKW4XIsn70inr3ITocy6oxAKTgXs4olNqvbYlvSpPwle6FiDv_jRETq7-VZ2KBX555h88j-I3c2GDQxPQUY7ndFcK6r4OhgdQLIRTaw74xLCalAV7GPgla_g6gIGbJ6ZQ9WBGQkagr8Oj7SjA2hEbG7uxXYYICVxvl7YAfKaeTLydzeurnTl_g2P-VwWieUyhUF1o3npEJy4SwHGeLahD9sOEo96TWlvLwZ1NCBlergIrrENIk2TSovHzcJ_FKYlL1L1Qghx6GB1o8JQUxd_-o2tUgCU11eBlM6ym8PkqaDaSwxu_BpdGr1ktI-DUnYUeulj4HCzK3P60onm5TOXdeieOQkmZUNN0SvyrOvTBPGd8Dj81qhWjTQXomef8ZMduO9VTJnKBErkrNjx2GQ8SreP3AvSfwyJm-0ow-ZKz0BVMxE3z6t42Rv-6t9uFurlGfJUN0dIO4jEJCCw-Lc6nkf9fzi3vGQjPvcUkaYXvyGy0]--></g></svg>